<svg xmlns="http://www.w3.org/2000/svg" xmlns:xlink="http://www.w3.org/1999/xlink" width="500" zoomAndPan="magnify" viewBox="0 0 375 374.999991" height="500" preserveAspectRatio="xMidYMid meet" version="1.0"><defs><clipPath id="a11d817739"><path d="M 4 33 L 371.957031 33 L 371.957031 342 L 4 342 Z M 4 33 " clip-rule="nonzero"/></clipPath></defs><g clip-path="url(#a11d817739)"><path fill="#f03612" d="M 239.570312 113.992188 C 291.929688 113.992188 334.367188 156.5 334.367188 208.960938 C 334.390625 261.40625 291.929688 303.933594 239.570312 303.90625 C 187.207031 303.90625 144.765625 261.402344 144.765625 208.960938 C 144.765625 156.523438 187.230469 113.992188 239.570312 113.992188 Z M 216.414062 33.117188 C 211.003906 33.117188 206.644531 37.5 206.644531 42.925781 L 206.644531 51.167969 C 206.644531 56.597656 211.003906 60.949219 216.414062 60.949219 L 226.300781 60.949219 L 226.300781 69.792969 L 239.570312 76.542969 C 218.804688 76.542969 199.160156 81.347656 181.679688 89.882812 C 140.089844 110.804688 100.152344 95.214844 71.839844 123.554688 C 68.601562 126.769531 69.621094 129.726562 74.003906 129.804688 C 92.683594 130.179688 103.414062 134.488281 109.1875 144.71875 C 113.324219 152.035156 109.886719 153.0625 100.820312 152.117188 C 59.261719 147.785156 50.574219 186.976562 9.335938 171.238281 C 4.707031 169.476562 2.8125 172.113281 5.832031 178.789062 C 24.203125 219.539062 57.472656 235.382812 88.972656 225.003906 C 115.640625 216.1875 120.273438 229.90625 108.414062 241.761719 C 101.761719 248.382812 82.667969 254.828125 66.0625 249.453125 C 60.484375 247.65625 59.441406 248.601562 61.207031 253.285156 C 73.5625 286.199219 100.027344 302.867188 138.351562 288.0625 C 147.390625 284.578125 150.328125 291.980469 143.699219 297.582031 L 130.429688 308.8125 C 127.074219 311.652344 128.71875 316.03125 133.742188 316.410156 C 176.871094 319.546875 191.714844 341.386719 239.570312 341.386719 C 312.578125 341.386719 371.761719 282.097656 371.761719 208.960938 C 371.761719 176.210938 359.886719 146.3125 340.242188 123.207031 L 344.726562 118.101562 C 350.773438 111.226562 349.703125 100.296875 342.152344 93.421875 C 334.585938 86.527344 323.484375 86.378906 317.425781 93.25 L 312.671875 98.648438 C 295.21875 86.992188 274.800781 79.480469 252.839844 77.285156 L 252.839844 60.949219 L 262.714844 60.949219 C 268.144531 60.949219 272.484375 56.597656 272.484375 51.167969 L 272.484375 42.925781 C 272.484375 37.5 268.144531 33.117188 262.714844 33.117188 Z M 216.414062 33.117188 " fill-opacity="1" fill-rule="evenodd"/></g><path fill="#f03612" d="M 238.144531 127.359375 C 235.40625 127.414062 233.210938 129.65625 233.238281 132.414062 L 233.238281 139.585938 C 233.238281 146.207031 243.199219 146.207031 243.199219 139.585938 L 243.199219 132.414062 C 243.257812 129.601562 240.957031 127.3125 238.144531 127.359375 Z M 238.144531 127.359375 " fill-opacity="1" fill-rule="nonzero"/><path fill="#f03612" d="M 238.144531 273.300781 C 235.40625 273.328125 233.210938 275.589844 233.238281 278.332031 L 233.238281 285.5 C 233.238281 292.152344 243.199219 292.152344 243.199219 285.5 L 243.199219 278.332031 C 243.257812 275.539062 240.957031 273.253906 238.144531 273.300781 Z M 238.144531 273.300781 " fill-opacity="1" fill-rule="nonzero"/><path fill="#f03612" d="M 307.492188 203.976562 C 304.753906 203.976562 302.515625 206.195312 302.515625 208.960938 C 302.515625 211.726562 304.753906 213.9375 307.492188 213.9375 L 314.640625 213.9375 C 317.378906 213.9375 319.621094 211.726562 319.621094 208.960938 C 319.621094 206.203125 317.382812 203.976562 314.640625 203.976562 Z M 307.492188 203.976562 " fill-opacity="1" fill-rule="nonzero"/><path fill="#f03612" d="M 161.777344 203.976562 C 159.042969 203.976562 156.800781 206.195312 156.800781 208.960938 C 156.800781 211.726562 159.042969 213.9375 161.777344 213.9375 L 168.949219 213.9375 C 171.6875 213.9375 173.933594 211.726562 173.933594 208.960938 C 173.933594 206.203125 171.6875 203.976562 168.949219 203.976562 Z M 161.777344 203.976562 " fill-opacity="1" fill-rule="nonzero"/><path fill="#f03612" d="M 287.144531 253 C 282.664062 253 280.476562 258.433594 283.683594 261.542969 L 288.714844 266.574219 C 290.636719 268.640625 293.894531 268.714844 295.886719 266.726562 C 297.878906 264.734375 297.808594 261.46875 295.742188 259.554688 L 290.710938 254.527344 C 289.769531 253.554688 288.488281 253 287.144531 253 Z M 287.144531 253 " fill-opacity="1" fill-rule="nonzero"/><path fill="#f03612" d="M 184.109375 149.824219 C 179.652344 149.796875 177.457031 155.246094 180.648438 158.363281 L 185.699219 163.394531 C 187.621094 165.460938 190.882812 165.535156 192.871094 163.542969 C 194.867188 161.554688 194.792969 158.289062 192.726562 156.371094 L 187.699219 151.339844 C 186.746094 150.371094 185.457031 149.824219 184.109375 149.824219 Z M 184.109375 149.824219 " fill-opacity="1" fill-rule="nonzero"/><path fill="#f03612" d="M 292.160156 149.824219 C 290.859375 149.851562 289.617188 150.398438 288.71875 151.339844 L 283.6875 156.371094 C 281.625 158.289062 281.546875 161.554688 283.539062 163.542969 C 285.53125 165.535156 288.792969 165.460938 290.710938 163.394531 L 295.742188 158.363281 C 299 155.203125 296.683594 149.667969 292.160156 149.824219 Z M 292.160156 149.824219 " fill-opacity="1" fill-rule="nonzero"/><path fill="#f03612" d="M 189.136719 253 C 187.847656 253.03125 186.605469 253.578125 185.699219 254.527344 L 180.648438 259.554688 C 178.582031 261.46875 178.527344 264.734375 180.527344 266.726562 C 182.515625 268.714844 185.78125 268.640625 187.699219 266.574219 L 192.726562 261.542969 C 195.992188 258.382812 193.671875 252.859375 189.136719 253 Z M 189.136719 253 " fill-opacity="1" fill-rule="nonzero"/><path fill="#f03612" d="M 239.570312 201.511719 C 243.726562 201.511719 247.015625 204.773438 247.015625 208.957031 C 247.015625 213.136719 243.726562 216.402344 239.570312 216.402344 C 235.40625 216.402344 232.128906 213.136719 232.128906 208.957031 C 232.121094 204.777344 235.40625 201.511719 239.570312 201.511719 Z M 273.15625 168.765625 C 271.886719 168.792969 270.648438 169.316406 269.746094 170.238281 L 246.8125 193.222656 C 244.601562 192.175781 242.15625 191.558594 239.570312 191.558594 C 230.027344 191.558594 222.210938 199.421875 222.210938 208.960938 C 222.210938 218.496094 230.027344 226.371094 239.570312 226.371094 C 249.109375 226.371094 256.921875 218.503906 256.921875 208.960938 C 256.921875 205.605469 255.925781 202.488281 254.257812 199.824219 L 276.765625 177.261719 C 279.949219 174.097656 277.664062 168.671875 273.15625 168.765625 Z M 273.15625 168.765625 " fill-opacity="1" fill-rule="evenodd"/></svg>