<svg xmlns="http://www.w3.org/2000/svg" xmlns:xlink="http://www.w3.org/1999/xlink" width="500" zoomAndPan="magnify" viewBox="0 0 375 374.999991" height="500" preserveAspectRatio="xMidYMid meet" version="1.2"><defs><clipPath id="ed565bc7fd"><path d="M 4 33 L 371.957031 33 L 371.957031 342 L 4 342 Z M 4 33 "/></clipPath></defs><g id="1be2cdb9c3"><g clip-rule="nonzero" clip-path="url(#ed565bc7fd)"><path style=" stroke:none;fill-rule:evenodd;fill:#ffffff;fill-opacity:1;" d="M 239.445312 113.949219 C 291.777344 113.949219 334.191406 156.433594 334.191406 208.867188 C 334.214844 261.285156 291.777344 303.789062 239.445312 303.765625 C 187.109375 303.765625 144.691406 261.28125 144.691406 208.867188 C 144.691406 156.457031 187.132812 113.949219 239.445312 113.949219 Z M 216.300781 33.113281 C 210.894531 33.113281 206.539062 37.496094 206.539062 42.921875 L 206.539062 51.15625 C 206.539062 56.585938 210.894531 60.933594 216.300781 60.933594 L 226.183594 60.933594 L 226.183594 69.773438 L 239.445312 76.519531 C 218.6875 76.519531 199.054688 81.324219 181.585938 89.851562 C 140.019531 110.761719 100.101562 95.179688 71.804688 123.507812 C 68.570312 126.71875 69.585938 129.675781 73.96875 129.75 C 92.636719 130.128906 103.359375 134.433594 109.132812 144.660156 C 113.265625 151.972656 109.828125 153 100.769531 152.050781 C 59.230469 147.722656 50.550781 186.894531 9.332031 171.164062 C 4.707031 169.402344 2.8125 172.039062 5.828125 178.710938 C 24.191406 219.441406 57.445312 235.277344 88.929688 224.902344 C 115.582031 216.089844 120.210938 229.800781 108.359375 241.652344 C 101.710938 248.269531 82.625 254.710938 66.03125 249.339844 C 60.453125 247.542969 59.414062 248.488281 61.175781 253.167969 C 73.523438 286.066406 99.976562 302.722656 138.28125 287.929688 C 147.316406 284.445312 150.25 291.84375 143.625 297.441406 L 130.363281 308.667969 C 127.007812 311.503906 128.652344 315.882812 133.671875 316.261719 C 176.777344 319.394531 191.617188 341.222656 239.445312 341.222656 C 312.417969 341.222656 371.566406 281.964844 371.566406 208.867188 C 371.566406 176.136719 359.699219 146.25 340.0625 123.15625 L 344.546875 118.054688 C 350.589844 111.183594 349.519531 100.261719 341.976562 93.390625 C 334.410156 86.5 323.316406 86.351562 317.261719 93.214844 L 312.507812 98.613281 C 295.066406 86.960938 274.65625 79.453125 252.707031 77.261719 L 252.707031 60.933594 L 262.578125 60.933594 C 268.007812 60.933594 272.339844 56.585938 272.339844 51.15625 L 272.339844 42.921875 C 272.339844 37.496094 268.007812 33.113281 262.578125 33.113281 Z M 216.300781 33.113281 "/></g><path style=" stroke:none;fill-rule:nonzero;fill:#ffffff;fill-opacity:1;" d="M 238.023438 127.308594 C 235.285156 127.363281 233.089844 129.605469 233.113281 132.359375 L 233.113281 139.527344 C 233.113281 146.144531 243.074219 146.144531 243.074219 139.527344 L 243.074219 132.359375 C 243.128906 129.550781 240.832031 127.261719 238.023438 127.308594 Z M 238.023438 127.308594 "/><path style=" stroke:none;fill-rule:nonzero;fill:#ffffff;fill-opacity:1;" d="M 238.023438 273.171875 C 235.285156 273.203125 233.089844 275.460938 233.113281 278.199219 L 233.113281 285.367188 C 233.113281 292.015625 243.074219 292.015625 243.074219 285.367188 L 243.074219 278.199219 C 243.128906 275.410156 240.832031 273.125 238.023438 273.171875 Z M 238.023438 273.171875 "/><path style=" stroke:none;fill-rule:nonzero;fill:#ffffff;fill-opacity:1;" d="M 307.332031 203.886719 C 304.59375 203.886719 302.359375 206.105469 302.359375 208.867188 C 302.359375 211.632812 304.59375 213.839844 307.332031 213.839844 L 314.476562 213.839844 C 317.214844 213.839844 319.453125 211.632812 319.453125 208.867188 C 319.453125 206.109375 317.21875 203.886719 314.476562 203.886719 Z M 307.332031 203.886719 "/><path style=" stroke:none;fill-rule:nonzero;fill:#ffffff;fill-opacity:1;" d="M 161.695312 203.886719 C 158.960938 203.886719 156.71875 206.105469 156.71875 208.867188 C 156.71875 211.632812 158.960938 213.839844 161.695312 213.839844 L 168.859375 213.839844 C 171.597656 213.839844 173.84375 211.632812 173.84375 208.867188 C 173.84375 206.109375 171.597656 203.886719 168.859375 203.886719 Z M 161.695312 203.886719 "/><path style=" stroke:none;fill-rule:nonzero;fill:#ffffff;fill-opacity:1;" d="M 286.996094 252.886719 C 282.519531 252.886719 280.328125 258.3125 283.535156 261.421875 L 288.5625 266.449219 C 290.484375 268.515625 293.742188 268.589844 295.730469 266.601562 C 297.722656 264.609375 297.652344 261.347656 295.585938 259.4375 L 290.558594 254.410156 C 289.617188 253.4375 288.339844 252.886719 286.996094 252.886719 Z M 286.996094 252.886719 "/><path style=" stroke:none;fill-rule:nonzero;fill:#ffffff;fill-opacity:1;" d="M 184.011719 149.761719 C 179.558594 149.734375 177.367188 155.183594 180.554688 158.296875 L 185.605469 163.324219 C 187.523438 165.390625 190.785156 165.464844 192.773438 163.472656 C 194.765625 161.484375 194.691406 158.222656 192.628906 156.304688 L 187.601562 151.277344 C 186.652344 150.308594 185.359375 149.761719 184.011719 149.761719 Z M 184.011719 149.761719 "/><path style=" stroke:none;fill-rule:nonzero;fill:#ffffff;fill-opacity:1;" d="M 292.007812 149.761719 C 290.707031 149.789062 289.464844 150.335938 288.566406 151.277344 L 283.539062 156.304688 C 281.476562 158.222656 281.398438 161.484375 283.394531 163.472656 C 285.378906 165.464844 288.644531 165.390625 290.558594 163.324219 L 295.585938 158.296875 C 298.847656 155.140625 296.527344 149.605469 292.007812 149.761719 Z M 292.007812 149.761719 "/><path style=" stroke:none;fill-rule:nonzero;fill:#ffffff;fill-opacity:1;" d="M 189.039062 252.886719 C 187.75 252.914062 186.507812 253.464844 185.605469 254.410156 L 180.554688 259.4375 C 178.488281 261.347656 178.4375 264.609375 180.433594 266.601562 C 182.421875 268.589844 185.683594 268.515625 187.601562 266.449219 L 192.628906 261.421875 C 195.890625 258.265625 193.570312 252.742188 189.039062 252.886719 Z M 189.039062 252.886719 "/><path style=" stroke:none;fill-rule:evenodd;fill:#ffffff;fill-opacity:1;" d="M 239.445312 201.421875 C 243.597656 201.421875 246.886719 204.679688 246.886719 208.863281 C 246.886719 213.042969 243.597656 216.308594 239.445312 216.308594 C 235.285156 216.308594 232.007812 213.042969 232.007812 208.863281 C 232 204.6875 235.285156 201.421875 239.445312 201.421875 Z M 273.015625 168.695312 C 271.742188 168.71875 270.503906 169.246094 269.605469 170.167969 L 246.6875 193.136719 C 244.472656 192.089844 242.03125 191.472656 239.445312 191.472656 C 229.910156 191.472656 222.097656 199.335938 222.097656 208.867188 C 222.097656 218.398438 229.910156 226.269531 239.445312 226.269531 C 248.980469 226.269531 256.785156 218.40625 256.785156 208.867188 C 256.785156 205.511719 255.792969 202.398438 254.125 199.734375 L 276.621094 177.1875 C 279.804688 174.023438 277.519531 168.601562 273.015625 168.695312 Z M 273.015625 168.695312 "/></g></svg>